<svg width="17" height="17" viewBox="0 0 17 17" fill="none" xmlns="http://www.w3.org/2000/svg">
<path fill-rule="evenodd" clip-rule="evenodd" d="M8.5 16.5866C12.9183 16.5866 16.5 13.0049 16.5 8.58661C16.5 4.16833 12.9183 0.586609 8.5 0.586609C4.08172 0.586609 0.5 4.16833 0.5 8.58661C0.5 13.0049 4.08172 16.5866 8.5 16.5866ZM9.20711 6.29372C9.59763 5.90319 9.59763 5.27003 9.20711 4.8795C8.81658 4.48898 8.18342 4.48898 7.79289 4.8795L4.79289 7.8795C4.40237 8.27003 4.40237 8.90319 4.79289 9.29372L7.79289 12.2937C8.18342 12.6842 8.81658 12.6842 9.20711 12.2937C9.59763 11.9032 9.59763 11.27 9.20711 10.8795L7.91421 9.58661H11.5C12.0523 9.58661 12.5 9.13889 12.5 8.58661C12.5 8.03432 12.0523 7.58661 11.5 7.58661L7.91421 7.58661L9.20711 6.29372Z" fill="#374151"/>
</svg>
