<svg width="17" height="17" viewBox="0 0 17 17" fill="none" xmlns="http://www.w3.org/2000/svg">
<path fill-rule="evenodd" clip-rule="evenodd" d="M8.5 16.5866C12.9183 16.5866 16.5 13.0049 16.5 8.58661C16.5 4.16833 12.9183 0.586609 8.5 0.586609C4.08172 0.586609 0.5 4.16833 0.5 8.58661C0.5 13.0049 4.08172 16.5866 8.5 16.5866ZM12.2071 7.8795L9.20711 4.8795C8.81658 4.48898 8.18342 4.48898 7.79289 4.8795C7.40237 5.27003 7.40237 5.90319 7.79289 6.29372L9.08579 7.58661L5.5 7.58661C4.94772 7.58661 4.5 8.03432 4.5 8.58661C4.5 9.13889 4.94772 9.58661 5.5 9.58661H9.08579L7.79289 10.8795C7.40237 11.27 7.40237 11.9032 7.79289 12.2937C8.18342 12.6842 8.81658 12.6842 9.20711 12.2937L12.2071 9.29372C12.5976 8.90319 12.5976 8.27003 12.2071 7.8795Z" fill="#374151"/>
</svg>
