<svg width="13" height="14" viewBox="0 0 13 14" fill="none" xmlns="http://www.w3.org/2000/svg">
<path d="M0.499999 7C0.499999 3.68629 3.18629 1 6.5 1C9.81371 1 12.5 3.68629 12.5 7C12.5 10.3137 9.81371 13 6.5 13C3.18629 13 0.499999 10.3137 0.499999 7Z" stroke="#7786D2"/>
<path fill-rule="evenodd" clip-rule="evenodd" d="M4.02514 8.61156C3.82988 8.80682 3.82988 9.1234 4.02514 9.31866C4.22041 9.51392 4.53699 9.51392 4.73225 9.31866L6.50003 7.55088L8.26778 9.31863C8.46305 9.51389 8.77963 9.51389 8.97489 9.31863C9.17015 9.12336 9.17015 8.80678 8.97489 8.61152L7.20714 6.84377L8.97489 5.07602C9.17015 4.88076 9.17015 4.56418 8.97489 4.36891C8.77963 4.17365 8.46305 4.17365 8.26778 4.36891L6.50003 6.13666L4.73225 4.36888C4.53699 4.17362 4.22041 4.17362 4.02514 4.36888C3.82988 4.56414 3.82988 4.88072 4.02514 5.07599L5.79293 6.84377L4.02514 8.61156Z" fill="#7786D2"/>
</svg>
