<svg width="13" height="14" viewBox="0 0 13 14" fill="none" xmlns="http://www.w3.org/2000/svg">
<path d="M12.5002 7.00366C12.5002 10.3174 9.81395 13.0037 6.50024 13.0037C3.18654 13.0037 0.500244 10.3174 0.500244 7.00366C0.500244 3.68995 3.18654 1.00366 6.50024 1.00366C9.81395 1.00366 12.5002 3.68995 12.5002 7.00366Z" stroke="#7786D2"/>
<path fill-rule="evenodd" clip-rule="evenodd" d="M7.00024 4.15942C7.00024 3.88328 6.77639 3.65942 6.50024 3.65942C6.2241 3.65942 6.00024 3.88328 6.00024 4.15942L6.00024 6.65942H3.50024C3.2241 6.65942 3.00024 6.88328 3.00024 7.15942C3.00024 7.43557 3.2241 7.65942 3.50024 7.65942H6.00024L6.00024 10.1594C6.00024 10.4356 6.2241 10.6594 6.50024 10.6594C6.77639 10.6594 7.00024 10.4356 7.00024 10.1594L7.00024 7.65942H9.50024C9.77639 7.65942 10.0002 7.43557 10.0002 7.15942C10.0002 6.88328 9.77639 6.65942 9.50024 6.65942H7.00024L7.00024 4.15942Z" fill="#7786D2"/>
</svg>
